<svg width="93" height="64" fill="none" xmlns="http://www.w3.org/2000/svg"><path d="M42.011 28.014a.987.987 0 00.364-.764V2m-.364 26.014c-.179.147-.41.236-.663.236H1.908m40.103-.236L1.641 1.798m40.37 26.216l.364.236m9.867-.236c.181.147.415.236.67.236h38.88m-39.55-.236a.984.984 0 01-.367-.764V2.125m.367 25.889l-.367.236m.367-.236L91.45 2.246m-39.206 35.24c.18-.147.414-.236.669-.236h38.88m-39.55.236a.984.984 0 00-.367.764v23.923m.367-24.687l-.367-.236m.367.236L91.626 62M42.002 36.486a1.082 1.082 0 00-.68-.236l-39.53.236m40.21 0a.979.979 0 01.373.764v23.625m-.373-24.389L1.908 62.173m40.094-25.687l.373-.236M2.792 62h88a1 1 0 001-1V3a1 1 0 00-1-1h-88a1 1 0 00-1 1v58a1 1 0 001 1z" stroke="#fff" stroke-width="2"/></svg>