<svg width="93" height="62" fill="none" xmlns="http://www.w3.org/2000/svg"><path d="M1.792 2v25.25h39.556c.253 0 .484-.089.663-.236L2.1 1.278A.997.997 0 001.792 2z" fill="#496BC3"/><path d="M42.375 1H2.791a.997.997 0 00-.691.278l39.91 25.736a.987.987 0 00.364-.764V1zm48.416 0H51.876v25.25c0 .306.143.58.367.764L91.51 1.304A.997.997 0 0090.791 1z" fill="#496BC3"/><path d="M91.791 27.25V2a.997.997 0 00-.28-.695L52.242 27.014c.18.147.414.236.669.236h38.88zm0 32.75V36.25H52.913a1.06 1.06 0 00-.67.236L91.54 60.664a.996.996 0 00.25-.664zm-39.916 1h38.916c.298 0 .565-.13.749-.336L52.242 36.486a.984.984 0 00-.367.764V61zM2.792 61h39.583V36.25a.979.979 0 00-.373-.764L2.097 60.72c.18.174.425.281.695.281z" fill="#496BC3"/><path d="M1.792 35.25V60c0 .282.116.537.305.72l39.905-25.234a1.082 1.082 0 00-.68-.236H1.792z" fill="#496BC3"/><path d="M2.792 61h88m-88 0a1 1 0 01-1-1m1 1h39.583V36.25a.979.979 0 00-.373-.764M2.792 61a.997.997 0 01-.695-.28M1.792 60V2m0 58V35.25h39.53c.26 0 .497.089.68.236M1.792 60c0 .282.116.537.305.72M91.792 60V2m0 58a1 1 0 01-1 1m1-1V36.25h-38.88a1.06 1.06 0 00-.67.236M91.792 60a.996.996 0 01-.252.664m-.75.336H51.876V37.25c0-.306.143-.58.367-.764M90.792 61a1 1 0 00.748-.336M90.79 1h-88m88 0a1 1 0 011 1m-1-1H51.876v25.25c0 .306.143.58.367.764M90.792 1c.282 0 .536.117.718.305m.281.695v25.25H52.913a1.06 1.06 0 01-.67-.236M91.792 2a.997.997 0 00-.282-.695M2.791 1a1 1 0 00-1 1m1-1h39.584v25.25c0 .306-.141.58-.364.764M2.791 1a.997.997 0 00-.691.278M1.792 2v25.25h39.556c.253 0 .484-.089.663-.236M1.791 2c0-.284.119-.54.309-.722m39.91 25.736L2.1 1.278m50.142 25.736L91.51 1.304M52.242 36.487L91.54 60.664M42.002 35.486L2.097 60.72" stroke="#fff" stroke-width="2"/><path d="M51.875 1h-9.5v25.25c0 .306-.141.58-.364.764-.179.147-.41.236-.663.236H1.792v8h39.53c.26 0 .497.089.68.236a.979.979 0 01.373.764V61h9.5V37.25c0-.306.143-.58.367-.764a1.06 1.06 0 01.67-.236h38.88v-9h-38.88a1.06 1.06 0 01-.67-.236.984.984 0 01-.367-.764V1z" fill="#AE3434"/><path d="M42.011 27.014a.987.987 0 00.364-.764V1h9.5v25.25c0 .306.143.58.367.764m-10.23 0c-.18.147-.411.236-.664.236H1.792v8h39.53c.26 0 .497.089.68.236m.01-8.472L2.1 1.278m50.142 25.736c.181.147.415.236.67.236h38.88v9h-38.88a1.06 1.06 0 00-.67.236m0-9.472L91.51 1.304M52.242 36.487a.984.984 0 00-.367.764V61h-9.5V36.25a.979.979 0 00-.373-.764m10.24 1L91.54 60.664M42.002 35.486L2.097 60.72m.695.281h88a1 1 0 001-1V2a1 1 0 00-1-1h-88a1 1 0 00-1 1v58a1 1 0 001 1z" stroke="#fff" stroke-width="2"/></svg>