<svg width="92" height="62" fill="none" xmlns="http://www.w3.org/2000/svg"><path d="M90.5 60V40.826H1.71V60a1 1 0 001 1H89.5a1 1 0 001-1z" fill="#AE3434"/><path d="M1.71 60V2m0 58a1 1 0 001 1H89.5a1 1 0 001-1M1.71 60V40.826M90.5 60V2m0 58V40.826M90.5 2a1 1 0 00-1-1H2.71a1 1 0 00-1 1M90.5 2v18.951M1.71 2v18.951m0 0H90.5m-88.79 0v19.875M90.5 20.951v19.875m-88.79 0H90.5" stroke="#fff" stroke-width="2"/><path fill-rule="evenodd" clip-rule="evenodd" d="M1.71 40.826V20.951H90.5v19.875H1.71z" fill="#496BC3"/><path d="M1.71 60V2m0 58a1 1 0 001 1H89.5a1 1 0 001-1M1.71 60V40.826M90.5 60V2m0 58V40.826M90.5 2a1 1 0 00-1-1H2.71a1 1 0 00-1 1M90.5 2v18.951M1.71 2v18.951m0 0H90.5m-88.79 0v19.875M90.5 20.951v19.875m-88.79 0H90.5" stroke="#fff" stroke-width="2"/><path fill-rule="evenodd" clip-rule="evenodd" d="M2.71 1H89.5a1 1 0 011 1v18.951H1.71V2a1 1 0 011-1z" fill="#F8F8F8"/><path d="M1.71 60V2m0 58a1 1 0 001 1H89.5a1 1 0 001-1M1.71 60V40.826M90.5 60V2m0 58V40.826M90.5 2a1 1 0 00-1-1H2.71a1 1 0 00-1 1M90.5 2v18.951M1.71 2v18.951m0 0H90.5m-88.79 0v19.875M90.5 20.951v19.875m-88.79 0H90.5" stroke="#fff" stroke-width="2"/></svg>