<svg width="138" height="21" fill="none" xmlns="http://www.w3.org/2000/svg"><path fill-rule="evenodd" clip-rule="evenodd" d="M34.757 4.109c-3.496.002-5.676 3.436-7.881 6.914-2.853 4.496-5.743 9.048-11.708 9.085v.002H9.831c-2.705 0-5.164-1.132-6.945-2.952A10.14 10.14 0 010 10.055c0-2.767 1.105-5.282 2.886-7.102C4.667 1.13 7.126 0 9.831 0h5.337c1.109 0 2.01.92 2.01 2.054 0 1.135-.901 2.055-2.01 2.055H9.831c-1.596 0-3.05.67-4.104 1.748a5.996 5.996 0 00-1.71 4.198c0 1.633.655 3.12 1.71 4.198A5.732 5.732 0 009.831 16h5.264c3.848 0 6.15-3.626 8.423-7.209C26.323 4.37 29.095 0 34.759 0c5.666 0 8.437 4.37 11.243 8.792 2.273 3.583 4.574 7.209 8.423 7.209 1.109 0 2.008.92 2.008 2.054 0 1.135-.9 2.055-2.008 2.055-6.016 0-8.916-4.572-11.78-9.087-2.208-3.479-4.387-6.914-7.886-6.914h-.002zm4.38 11.904h-8.754c-1.1 0-2.004-.925-2.004-2.05 0-1.124.902-2.049 2.004-2.049h8.754c1.102 0 2.004.922 2.004 2.05 0 1.127-.905 2.049-2.004 2.049zm72.944-13.964v16.013c0 1.125-.902 2.047-2.002 2.047h-.001c-1.102 0-2.004-.922-2.004-2.047V2.049c0-1.127.902-2.049 2.004-2.049h.001c1.1 0 2.002.923 2.002 2.05zM93.265 8h3.808c1.631 0 3.111.682 4.183 1.777a6.107 6.107 0 011.737 4.277 6.105 6.105 0 01-1.737 4.279 5.835 5.835 0 01-4.183 1.777H88.84c-2.706 0-5.165-1.132-6.947-2.953a10.14 10.14 0 01-2.885-7.102 10.14 10.14 0 012.886-7.102C83.674 1.13 86.133 0 88.84 0h11.505c1.11 0 2.009.92 2.009 2.054 0 1.135-.899 2.055-2.009 2.055H88.84c-1.598 0-3.05.67-4.105 1.748a5.995 5.995 0 00-1.71 4.198c0 1.633.655 3.12 1.71 4.198A5.732 5.732 0 0088.84 16h8.233c.521 0 .997-.22 1.343-.574a1.96 1.96 0 000-2.745 1.877 1.877 0 00-1.343-.573h-3.808c-1.11 0-2.009-.92-2.009-2.054 0-1.135.9-2.055 2.01-2.055zm26.053 12.12h11.811c1.63 0 3.111-.68 4.183-1.777a6.098 6.098 0 001.737-4.277 6.104 6.104 0 00-1.737-4.278 5.842 5.842 0 00-4.183-1.777h-7.932c-.521 0-.995-.218-1.342-.572a1.962 1.962 0 010-2.746 1.877 1.877 0 011.342-.574h10.793c1.109 0 2.01-.92 2.01-2.054S135.099.01 133.99.01h-10.793a5.84 5.84 0 00-4.182 1.776 6.105 6.105 0 00-1.739 4.279c0 1.666.666 3.181 1.739 4.277a5.863 5.863 0 003.439 1.73v.047h8.675c.521 0 .996.22 1.342.573a1.963 1.963 0 010 2.746 1.875 1.875 0 01-1.342.574h-11.811c-1.109 0-2.009.919-2.009 2.054 0 1.134.9 2.053 2.009 2.053zM53.499.01h15.86c1.631 0 3.111.682 4.184 1.777a6.111 6.111 0 011.737 4.279 6.108 6.108 0 01-1.737 4.277 5.838 5.838 0 01-4.184 1.777h-3.356l.319.265c2.151 1.789 4.328 3.601 8.288 3.601 1.11 0 2.01.92 2.01 2.055 0 1.133-.9 2.054-2.01 2.054-5.368 0-8.108-2.28-10.816-4.532-2.088-1.738-4.151-3.454-7.78-3.454-1.108 0-2.008-.92-2.008-2.054 0-1.135.9-2.055 2.009-2.055.222 0 .44.006.653.014V8.01H69.36c.521 0 .997-.218 1.343-.572a1.962 1.962 0 000-2.746 1.876 1.876 0 00-1.343-.574H53.5c-1.11 0-2.009-.92-2.009-2.054S52.39.01 53.5.01z" fill="#1B40B8"/></svg>